<svg width="20" height="17" viewBox="0 0 20 17" fill="none" xmlns="http://www.w3.org/2000/svg">
<path d="M18.76 12.34H18.75C19.5 12.77 20 13.58 20 14.5C20 15.163 19.7366 15.7989 19.2678 16.2678C18.7989 16.7366 18.163 17 17.5 17H2.5C1.83696 17 1.20107 16.7366 0.732233 16.2678C0.263392 15.7989 0 15.163 0 14.5C0 13.58 0.5 12.77 1.25 12.34H1.24L9 7.86C9 7.86 9 7 10 6C11 6 12 5.1 12 4C12 3.46957 11.7893 2.96086 11.4142 2.58579C11.0391 2.21071 10.5304 2 10 2C9.46957 2 8.96086 2.21071 8.58579 2.58579C8.21071 2.96086 8 3.46957 8 4H6C6 2.93913 6.42143 1.92172 7.17157 1.17157C7.92172 0.421427 8.93913 0 10 0C11.0609 0 12.0783 0.421427 12.8284 1.17157C13.5786 1.92172 14 2.93913 14 4C14 5.86 12.73 7.42 11 7.87L18.76 12.34ZM2.5 15H17.5C17.67 15 17.84 14.91 17.93 14.75C18.07 14.5 18 14.21 17.75 14.07L10 9.59L2.25 14.07C2 14.21 1.93 14.5 2.07 14.75C2.16 14.91 2.33 15 2.5 15Z" fill="#2979FF"/>
</svg>
